<svg width="129" height="55" viewBox="0 0 129 55" fill="none" xmlns="http://www.w3.org/2000/svg">
<g id="Frame 3">
<g id="Group 1">
<path id="Vector" d="M17.4243 29.773C26.422 19.3962 36.3831 9.29224 47.2968 0.909415C47.3131 0.897121 47.3331 0.890682 47.3535 0.891136C47.374 0.891589 47.3936 0.89891 47.4094 0.911916C47.4251 0.924923 47.4361 0.942856 47.4404 0.962827C47.4447 0.982797 47.4422 1.00364 47.4332 1.02199C46.9107 2.06985 46.3471 3.11337 45.7423 4.15256C37.9246 17.5993 28.3683 29.6929 18.444 41.3946C18.3993 41.4466 18.3495 41.4517 18.2946 41.4098C11.4143 36.1229 5.14669 29.6539 0.909809 22.0202C0.720733 21.6796 0.596607 21.3404 0.537431 21.0026C0.533682 20.9797 0.535856 20.9562 0.543739 20.9344C0.551623 20.9125 0.564946 20.8931 0.582404 20.8781C0.599862 20.863 0.620858 20.8528 0.643335 20.8485C0.665812 20.8441 0.689 20.8458 0.71063 20.8533C6.73579 22.8775 12.1504 26.0189 17.1862 29.7968C17.2215 29.8238 17.2657 29.8363 17.3099 29.8319C17.3541 29.8274 17.395 29.8064 17.4243 29.773Z" fill="#0D6C70"/>
<path id="Vector_2" d="M94.671 19.2749C96.0497 19.2749 97.1673 18.1573 97.1673 16.7787C97.1673 15.4001 96.0497 14.2825 94.671 14.2825C93.2924 14.2825 92.1748 15.4001 92.1748 16.7787C92.1748 18.1573 93.2924 19.2749 94.671 19.2749Z" fill="#A6A6A6"/>
<path id="Vector_3" d="M128.551 15.7332H125.143C125.112 15.7332 125.087 15.7584 125.087 15.7894V40.1412C125.087 40.1723 125.112 40.1975 125.143 40.1975H128.551C128.582 40.1975 128.607 40.1723 128.607 40.1412V15.7894C128.607 15.7584 128.582 15.7332 128.551 15.7332Z" fill="#A6A6A6"/>
<path id="Vector_4" d="M94.6708 25.2135C96.0483 25.2135 97.1649 24.0968 97.1649 22.7194C97.1649 21.342 96.0483 20.2253 94.6708 20.2253C93.2934 20.2253 92.1768 21.342 92.1768 22.7194C92.1768 24.0968 93.2934 25.2135 94.6708 25.2135Z" fill="#A6A6A6"/>
<path id="Vector_5" d="M39.7776 26.229C37.9461 25.1551 36.0452 24.9559 33.9365 24.8195C33.8788 24.8152 33.8492 24.7842 33.8477 24.7265L33.7979 22.8711C33.7973 22.8347 33.8111 22.7995 33.8362 22.7732C33.8613 22.7469 33.8958 22.7315 33.9322 22.7303C41.0918 22.5073 47.2685 26.1034 47.4287 33.9883C47.4547 35.3118 47.4756 36.6375 47.4915 37.9653C47.4915 38.0433 47.5312 38.0822 47.6105 38.0822C50.832 38.0895 54.0485 38.0916 57.2599 38.0887C59.2127 38.0887 60.6827 37.948 61.4773 36.1338C62.0272 34.8737 61.7761 32.4446 61.828 30.9963C62.0229 25.5513 66.0519 22.0614 71.5813 22.7931C75.2444 23.2781 77.8402 25.9951 78.4356 29.5544C78.9942 32.8928 77.0695 38.0758 82.5599 38.0822C84.569 38.0851 86.5781 38.0873 88.5872 38.0887C89.6683 38.0902 90.4607 37.987 90.9644 37.7792C92.2562 37.2451 92.8977 36.1742 92.8891 34.5663C92.8775 32.6308 92.8768 30.6946 92.8869 28.7577C92.8869 28.6855 92.923 28.6494 92.9951 28.6494L96.2903 28.6754C96.374 28.6754 96.4151 28.7172 96.4137 28.801C96.3761 32.0124 96.3898 34.0604 96.4548 34.9452C96.5558 36.3495 97.1757 37.2913 98.3145 37.7705C98.824 37.9855 99.6922 38.0916 100.919 38.0887C102.668 38.0859 104.408 38.0859 106.139 38.0887C106.152 38.0884 106.165 38.0842 106.177 38.0767C106.188 38.0692 106.197 38.0587 106.202 38.0465C106.207 38.0343 106.209 38.021 106.206 38.0081C106.204 37.9952 106.198 37.9834 106.189 37.974C103.625 35.2353 103.062 31.0439 104.465 27.673C105.966 24.0683 109.31 22.3623 113.117 22.7455C117.843 23.2196 120.467 26.8157 120.542 31.3686C120.542 31.3991 120.531 31.4282 120.509 31.4498C120.488 31.4713 120.46 31.4834 120.43 31.4834H117.137C117.072 31.4834 117.037 31.4516 117.033 31.3881C116.881 29.6128 116.747 28.2056 115.699 26.6988C114.041 24.3173 110.523 24.248 108.756 26.4628C106.533 29.2534 106.572 36.2074 110.51 37.7792C111.015 37.9812 111.77 38.083 112.774 38.0844C115.331 38.0887 117.881 38.0887 120.426 38.0844C120.456 38.0844 120.485 38.0965 120.507 38.118C120.528 38.1395 120.54 38.1687 120.54 38.1992V40.0849C120.54 40.157 120.504 40.1931 120.432 40.1931C113.54 40.2003 106.648 40.2054 99.7564 40.2083C97.909 40.2097 96.2369 39.6858 94.7401 38.6365C94.7117 38.6169 94.678 38.6065 94.6434 38.6069C94.6089 38.6073 94.5754 38.6184 94.5474 38.6387C93.1214 39.6576 91.6651 40.1729 90.1785 40.1845C88.8016 40.196 85.9698 40.1946 81.6831 40.1801C79.5831 40.1729 77.7948 39.4801 76.3183 38.1017C76.262 38.0498 76.2021 38.0469 76.1386 38.0931C74.9197 39.0002 74.0385 39.6778 72.4927 39.9809C69.4112 40.5886 66.6855 39.9225 64.3156 37.9827C64.255 37.9336 64.1965 37.9365 64.1402 37.9913C62.1419 39.9615 60.2541 40.1866 57.2512 40.1909C48.9045 40.201 40.5577 40.2018 32.211 40.1931C32.1374 40.1931 32.1006 40.157 32.1006 40.0849V38.1948C32.1006 38.1227 32.1367 38.0866 32.2088 38.0866H43.837C43.8933 38.0866 43.9229 38.0584 43.9257 38.0021C44.1184 33.6224 44.0318 28.7252 39.7776 26.229ZM68.0978 25.3781C63.8198 27.8549 64.4043 37.6384 70.1524 38.0866C75.9221 38.5391 76.2815 28.4654 72.8326 25.7505C71.5596 24.7481 69.5483 24.5403 68.0978 25.3781Z" fill="#A6A6A6"/>
<g id="Group 3">
<path id="Vector_6" d="M45.0692 43.982C45.4498 43.982 45.7584 43.6735 45.7584 43.2928C45.7584 42.9121 45.4498 42.6035 45.0692 42.6035C44.6885 42.6035 44.3799 42.9121 44.3799 43.2928C44.3799 43.6735 44.6885 43.982 45.0692 43.982Z" fill="#0D6C70"/>
<path id="Vector_7" d="M45.0775 45.6759C45.4581 45.6759 45.7667 45.3673 45.7667 44.9866C45.7667 44.606 45.4581 44.2974 45.0775 44.2974C44.6968 44.2974 44.3882 44.606 44.3882 44.9866C44.3882 45.3673 44.6968 45.6759 45.0775 45.6759Z" fill="#0D6C70"/>
<g id="Group 2">
<path id="Vector_8" d="M26.4727 49.7754C26.4598 49.7705 26.446 49.7687 26.4323 49.7703C26.4186 49.7718 26.4054 49.7766 26.394 49.7842C26.3825 49.7919 26.373 49.8022 26.3663 49.8142C26.3597 49.8263 26.3559 49.8397 26.3555 49.8535C26.2857 52.2143 24.3128 53.3864 22.0915 52.9259C18.2601 52.1362 18.9522 46.8955 22.7306 47.0881C22.7847 47.0904 22.8361 47.1123 22.8752 47.1497C22.9143 47.1871 22.9385 47.2375 22.9433 47.2914C22.9481 47.3453 22.9331 47.3992 22.9012 47.4429C22.8692 47.4866 22.8225 47.5172 22.7696 47.529C21.4674 47.8341 20.7335 48.5131 20.5679 49.5661C20.0293 53.0068 25.1779 53.4226 25.2672 50.1688C25.3304 47.8434 25.3593 45.516 25.3537 43.1869C25.3537 43.0641 25.4151 43.0027 25.5379 43.0027H26.1295C26.2578 43.0027 26.322 43.0669 26.322 43.1952C26.3239 44.8305 26.3313 46.462 26.3443 48.0899C26.3555 49.3121 27.9182 49.9568 28.5573 49.0024C28.9786 48.3689 28.7638 45.9523 28.7693 45.1123C28.7712 45.0026 28.827 44.9524 28.9368 44.9617L29.5619 45.0063C29.6846 45.0156 29.7451 45.0817 29.7432 45.2044C29.7405 46.1421 29.9721 48.4582 29.5172 49.2089C28.9507 50.1381 27.3796 50.1102 26.4727 49.7754Z" fill="#0D6C70"/>
<path id="Vector_9" d="M31.8223 51.9046C34.3031 51.7343 34.8389 48.7596 34.4008 46.8257C34.1524 45.7319 32.7627 44.9421 32.1181 46.2509C31.3703 47.7745 31.6819 48.8731 33.053 49.5465C33.1002 49.569 33.1381 49.6072 33.16 49.6547C33.1819 49.7022 33.1865 49.7559 33.1728 49.8064C33.1592 49.8569 33.1283 49.901 33.0855 49.931C33.0427 49.9611 32.9907 49.9751 32.9386 49.9707C29.5592 49.7391 30.3238 44.2361 33.6613 45.0789C36.2063 45.7207 34.8501 48.7736 36.1198 49.287C38.0955 50.0851 37.5039 47.6238 37.6937 46.8425C38.355 44.0994 42.4404 44.5096 42.446 47.4732C42.4488 48.5029 42.4655 49.7865 43.9082 49.3568C44.7677 49.1001 44.6254 47.5373 44.6031 46.8537C44.5994 46.7513 44.6487 46.7002 44.751 46.7002H45.3538C45.4056 46.7002 45.4555 46.7205 45.4929 46.7569C45.5304 46.7933 45.5525 46.843 45.5547 46.8955L45.6328 48.9019C45.6346 48.9327 45.6427 48.9628 45.6567 48.9902C45.6706 49.0175 45.69 49.0417 45.7137 49.061C46.5425 49.7056 47.6699 49.4768 47.6699 48.2992C47.6699 46.582 47.6708 44.864 47.6727 43.145C47.6727 43.0501 47.7201 43.0027 47.815 43.0027H48.5071C48.6001 43.0027 48.6466 43.0501 48.6466 43.145C48.6503 44.7282 48.6513 46.3104 48.6494 47.8917C48.6466 48.8377 48.8419 49.6498 50.0056 49.3791C50.5414 49.2545 50.8139 48.8805 50.8232 48.2573C50.8474 46.5588 50.8344 44.8631 50.7842 43.1701C50.7805 43.0585 50.8344 43.0027 50.946 43.0027H51.6437C51.7367 43.0027 51.7841 43.0492 51.786 43.1422C51.7916 44.8631 51.7944 46.5848 51.7944 48.3075C51.7944 50.1521 49.534 50.2777 48.309 49.6386C48.2178 49.5921 48.1266 49.5912 48.0355 49.6358C47.0792 50.1084 46.1212 50.1065 45.1612 49.6303C45.131 49.6147 45.0973 49.6068 45.0627 49.6073C45.0282 49.6078 44.994 49.6166 44.9631 49.6331C43.9008 50.1781 42.8785 50.1335 41.8962 49.4991C41.8218 49.4507 41.7483 49.4507 41.6758 49.4991C40.6005 50.1837 39.5326 50.1679 38.4722 49.4517C38.396 49.3996 38.3206 49.4005 38.2462 49.4545C37.3923 50.0591 36.4621 50.1698 35.4556 49.7865C35.3682 49.753 35.3087 49.7809 35.277 49.8702C34.7357 51.4199 33.6408 52.3073 31.9926 52.5324C31.9493 52.5387 31.9051 52.5296 31.8675 52.5068C31.8299 52.4839 31.8011 52.4486 31.7861 52.4069L31.6856 52.1139C31.6409 51.9836 31.6865 51.9139 31.8223 51.9046ZM40.1197 49.4229C40.3047 49.4174 40.4864 49.3624 40.6544 49.2611C40.8225 49.1597 40.9736 49.0139 41.0991 48.8321C41.2246 48.6503 41.3221 48.436 41.386 48.2014C41.4499 47.9668 41.4789 47.7165 41.4715 47.4648C41.464 47.2132 41.4202 46.9651 41.3425 46.7347C41.2648 46.5043 41.1548 46.2961 41.0187 46.1221C40.8826 45.948 40.7231 45.8115 40.5494 45.7202C40.3756 45.629 40.191 45.5849 40.006 45.5904C39.821 45.5959 39.6393 45.6509 39.4713 45.7522C39.3032 45.8536 39.1521 45.9994 39.0266 46.1812C38.9011 46.363 38.8036 46.5773 38.7397 46.8119C38.6758 47.0465 38.6468 47.2968 38.6542 47.5484C38.6617 47.8001 38.7055 48.0482 38.7832 48.2786C38.8609 48.509 38.9709 48.7172 39.107 48.8912C39.2431 49.0653 39.4026 49.2018 39.5763 49.2931C39.7501 49.3843 39.9347 49.4284 40.1197 49.4229Z" fill="#0D6C70"/>
<path id="Vector_10" d="M27.7648 52.3817C28.147 52.3817 28.4569 52.0718 28.4569 51.6896C28.4569 51.3074 28.147 50.9976 27.7648 50.9976C27.3826 50.9976 27.0728 51.3074 27.0728 51.6896C27.0728 52.0718 27.3826 52.3817 27.7648 52.3817Z" fill="#0D6C70"/>
<path id="Vector_11" d="M27.773 54.1092C28.1567 54.1092 28.4678 53.7981 28.4678 53.4143C28.4678 53.0306 28.1567 52.7195 27.773 52.7195C27.3892 52.7195 27.0781 53.0306 27.0781 53.4143C27.0781 53.7981 27.3892 54.1092 27.773 54.1092Z" fill="#0D6C70"/>
</g>
</g>
</g>
</g>
</svg>
