<svg width="216" height="90" viewBox="0 0 216 90" fill="none" xmlns="http://www.w3.org/2000/svg">
<path d="M28.3802 48.5339C43.5002 31.0965 60.2391 14.1175 78.5787 0.0307545C78.6062 0.0100957 78.6397 -0.000724757 78.6741 3.77049e-05C78.7084 0.000800167 78.7415 0.0131021 78.768 0.0349582C78.7944 0.0568142 78.8128 0.0869504 78.82 0.120509C78.8273 0.154068 78.823 0.189093 78.8079 0.219936C77.93 1.98078 76.9828 3.73434 75.9666 5.48063C62.8294 28.0769 46.7708 48.3993 30.0938 68.0633C30.0186 68.1506 29.9349 68.1591 29.8427 68.0887C18.2808 59.2045 7.74852 48.3338 0.628756 35.5059C0.311029 34.9335 0.102444 34.3635 0.00300209 33.796C-0.00329773 33.7575 0.000355522 33.7179 0.013603 33.6812C0.0268505 33.6445 0.0492387 33.6119 0.0785762 33.5866C0.107914 33.5613 0.143195 33.5442 0.180966 33.5369C0.218737 33.5296 0.257703 33.5324 0.294051 33.545C10.4189 36.9466 19.5178 42.2255 27.98 48.574C28.0394 48.6192 28.1137 48.6403 28.188 48.6328C28.2623 48.6254 28.331 48.5901 28.3802 48.5339Z" fill="white"/>
<path d="M158.188 30.8927C160.505 30.8927 162.383 29.0147 162.383 26.698C162.383 24.3813 160.505 22.5032 158.188 22.5032C155.871 22.5032 153.993 24.3813 153.993 26.698C153.993 29.0147 155.871 30.8927 158.188 30.8927Z" fill="white"/>
<path d="M215.121 24.941H209.394C209.342 24.941 209.3 24.9833 209.3 25.0356V65.957C209.3 66.0092 209.342 66.0515 209.394 66.0515H215.121C215.173 66.0515 215.215 66.0092 215.215 65.957V25.0356C215.215 24.9833 215.173 24.941 215.121 24.941Z" fill="white"/>
<path d="M158.188 40.8719C160.502 40.8719 162.379 38.9955 162.379 36.6808C162.379 34.3662 160.502 32.4897 158.188 32.4897C155.873 32.4897 153.997 34.3662 153.997 36.6808C153.997 38.9955 155.873 40.8719 158.188 40.8719Z" fill="white"/>
<path d="M65.9437 42.5783C62.8658 40.7738 59.6716 40.4391 56.1281 40.2099C56.0311 40.2027 55.9813 40.1505 55.9789 40.0535L55.8952 36.9356C55.8943 36.8745 55.9174 36.8154 55.9596 36.7712C56.0018 36.7269 56.0597 36.7011 56.1208 36.6992C68.152 36.3244 78.5315 42.3673 78.8007 55.6173C78.8444 57.8414 78.8796 60.0691 78.9062 62.3005C78.9062 62.4315 78.9729 62.497 79.1063 62.497C84.5198 62.5091 89.9248 62.5127 95.3214 62.5079C98.6029 62.5079 101.073 62.2714 102.408 59.2227C103.332 57.1053 102.91 53.0233 102.998 50.5894C103.325 41.4396 110.096 35.575 119.387 36.8047C125.543 37.6196 129.905 42.1854 130.906 48.1665C131.844 53.7764 128.61 62.486 137.836 62.497C141.212 62.5018 144.589 62.5054 147.965 62.5079C149.781 62.5103 151.113 62.3369 151.959 61.9876C154.13 61.0902 155.208 59.2906 155.194 56.5887C155.174 53.3362 155.173 50.0825 155.19 46.8276C155.19 46.7064 155.251 46.6457 155.372 46.6457L160.909 46.6894C161.05 46.6894 161.119 46.7597 161.116 46.9004C161.053 52.2969 161.076 55.7386 161.186 57.2253C161.355 59.5853 162.397 61.1678 164.311 61.9731C165.167 62.3344 166.626 62.5127 168.687 62.5079C171.627 62.503 174.551 62.503 177.459 62.5079C177.481 62.5073 177.503 62.5002 177.522 62.4876C177.541 62.475 177.556 62.4574 177.565 62.4369C177.574 62.4164 177.576 62.394 177.572 62.3723C177.568 62.3507 177.558 62.3308 177.543 62.315C173.235 57.7128 172.289 50.6695 174.647 45.005C177.168 38.9475 182.789 36.0807 189.184 36.7246C197.126 37.5214 201.536 43.5643 201.663 51.2152C201.663 51.2663 201.643 51.3154 201.608 51.3515C201.572 51.3877 201.524 51.408 201.474 51.408H195.94C195.831 51.408 195.773 51.3547 195.766 51.2479C195.511 48.2647 195.286 45.8999 193.525 43.3678C190.738 39.3659 184.826 39.2495 181.857 42.9713C178.121 47.6608 178.186 59.3464 184.804 61.9876C185.653 62.3272 186.922 62.4982 188.61 62.5006C192.905 62.5079 197.191 62.5079 201.467 62.5006C201.518 62.5006 201.567 62.5209 201.603 62.5571C201.639 62.5932 201.659 62.6423 201.659 62.6934V65.8622C201.659 65.9835 201.599 66.0441 201.478 66.0441C189.896 66.0562 178.315 66.0647 166.734 66.0696C163.629 66.072 160.819 65.1916 158.304 63.4283C158.256 63.3953 158.2 63.378 158.142 63.3786C158.084 63.3793 158.027 63.3979 157.98 63.4319C155.584 65.1443 153.137 66.0102 150.639 66.0296C148.325 66.049 143.566 66.0465 136.363 66.0223C132.834 66.0101 129.829 64.846 127.348 62.5297C127.253 62.4424 127.152 62.4375 127.046 62.5151C124.997 64.0395 123.517 65.1782 120.919 65.6876C115.741 66.7087 111.16 65.5893 107.178 62.3296C107.076 62.2471 106.978 62.252 106.883 62.3442C103.525 65.6548 100.353 66.0332 95.3068 66.0405C81.2807 66.0574 67.2546 66.0587 53.2285 66.0441C53.1048 66.0441 53.043 65.9835 53.043 65.8622V62.6861C53.043 62.5649 53.1036 62.5042 53.2249 62.5042H72.7651C72.8597 62.5042 72.9094 62.4569 72.9143 62.3623C73.2381 55.0025 73.0926 46.7731 65.9437 42.5783ZM113.534 41.1486C106.345 45.3106 107.327 61.7511 116.986 62.5042C126.682 63.2646 127.286 46.3365 121.49 41.7743C119.351 40.0899 115.971 39.7406 113.534 41.1486Z" fill="white"/>
<path d="M74.835 72.4111C75.4747 72.4111 75.9933 71.8926 75.9933 71.2529C75.9933 70.6132 75.4747 70.0946 74.835 70.0946C74.1953 70.0946 73.6768 70.6132 73.6768 71.2529C73.6768 71.8926 74.1953 72.4111 74.835 72.4111Z" fill="white"/>
<path d="M74.8492 75.2575C75.4889 75.2575 76.0075 74.7389 76.0075 74.0992C76.0075 73.4596 75.4889 72.941 74.8492 72.941C74.2095 72.941 73.6909 73.4596 73.6909 74.0992C73.6909 74.7389 74.2095 75.2575 74.8492 75.2575Z" fill="white"/>
<path d="M43.5855 82.1465C43.5638 82.1383 43.5405 82.1353 43.5175 82.1379C43.4945 82.1405 43.4724 82.1486 43.4532 82.1614C43.4339 82.1743 43.418 82.1915 43.4067 82.2118C43.3955 82.232 43.3892 82.2547 43.3885 82.2778C43.2713 86.245 39.9559 88.2145 36.2232 87.4408C29.7848 86.1137 30.9477 77.3071 37.2971 77.6307C37.388 77.6346 37.4743 77.6714 37.5401 77.7343C37.6059 77.7971 37.6465 77.8818 37.6546 77.9724C37.6626 78.063 37.6374 78.1534 37.5837 78.2269C37.53 78.3003 37.4515 78.3518 37.3627 78.3716C35.1744 78.8843 33.9411 80.0254 33.6628 81.7948C32.7578 87.5768 41.4096 88.2755 41.5597 82.8077C41.666 78.8999 41.7144 74.989 41.705 71.075C41.705 70.8687 41.8082 70.7655 42.0145 70.7655H43.0087C43.2244 70.7655 43.3322 70.8734 43.3322 71.0891C43.3354 73.837 43.3479 76.5787 43.3697 79.3142C43.3885 81.3681 46.0145 82.4513 47.0884 80.8476C47.7965 79.7831 47.4354 75.7221 47.4448 74.3106C47.4479 74.1262 47.5417 74.0418 47.7261 74.0574L48.7766 74.1324C48.9829 74.1481 49.0845 74.2591 49.0814 74.4654C49.0767 76.041 49.4659 79.9331 48.7015 81.1946C47.7496 82.7561 45.1095 82.7092 43.5855 82.1465Z" fill="white"/>
<path d="M52.5746 85.7245C56.7434 85.4385 57.6438 80.4397 56.9075 77.1899C56.4902 75.3517 54.1549 74.0246 53.0717 76.2239C51.8149 78.7843 52.3386 80.6304 54.6426 81.7621C54.722 81.7997 54.7857 81.8641 54.8225 81.9439C54.8593 82.0237 54.8669 82.1138 54.844 82.1987C54.8211 82.2836 54.7692 82.3577 54.6972 82.4081C54.6253 82.4586 54.5379 82.4822 54.4503 82.4748C48.7715 82.0856 50.0564 72.8382 55.6649 74.2544C59.9415 75.333 57.6625 80.4631 59.7962 81.3259C63.1162 82.6671 62.1221 78.5311 62.4409 77.2181C63.5523 72.6085 70.4175 73.2978 70.4269 78.2779C70.4316 80.0082 70.4597 82.1653 72.8841 81.4432C74.3284 81.0117 74.0892 78.3857 74.0517 77.2368C74.0455 77.0649 74.1283 76.9789 74.3003 76.9789H75.3132C75.4003 76.9789 75.4841 77.0131 75.5471 77.0742C75.61 77.1354 75.6472 77.2189 75.6508 77.3072L75.7821 80.6788C75.7851 80.7306 75.7988 80.7811 75.8222 80.8271C75.8456 80.8731 75.8783 80.9136 75.9181 80.9461C77.3108 82.0293 79.2053 81.6448 79.2053 79.6659C79.2053 76.7804 79.2069 73.8933 79.21 71.0047C79.21 70.8453 79.2897 70.7656 79.4492 70.7656H80.6121C80.7684 70.7656 80.8466 70.8453 80.8466 71.0047C80.8528 73.6651 80.8544 76.324 80.8513 78.9813C80.8466 80.571 81.1748 81.9356 83.1303 81.4807C84.0306 81.2712 84.4886 80.6429 84.5043 79.5956C84.5449 76.7413 84.523 73.8918 84.4386 71.0469C84.4323 70.8594 84.523 70.7656 84.7106 70.7656H85.8829C86.0392 70.7656 86.1189 70.8437 86.1221 71C86.1314 73.8918 86.1361 76.7851 86.1361 79.68C86.1361 82.7796 82.3378 82.9907 80.2792 81.9168C80.126 81.8386 79.9728 81.8371 79.8196 81.9121C78.2127 82.7062 76.6027 82.703 74.9896 81.9027C74.9389 81.8766 74.8821 81.8633 74.8242 81.8641C74.7662 81.8649 74.7087 81.8798 74.6567 81.9074C72.8716 82.8234 71.1537 82.7484 69.5031 81.6823C69.378 81.601 69.2545 81.601 69.1326 81.6823C67.3257 82.8328 65.5312 82.8062 63.7493 81.6026C63.6211 81.5151 63.4945 81.5166 63.3694 81.6073C61.9345 82.6233 60.3714 82.8093 58.6801 82.1653C58.5332 82.1091 58.4331 82.1559 58.38 82.306C57.4703 84.9101 55.6305 86.4014 52.8606 86.7796C52.7879 86.7902 52.7137 86.7749 52.6505 86.7365C52.5872 86.698 52.5389 86.6387 52.5136 86.5686L52.3448 86.0762C52.2698 85.8574 52.3464 85.7402 52.5746 85.7245ZM66.5178 81.5543C66.8286 81.5451 67.1339 81.4527 67.4163 81.2823C67.6987 81.112 67.9526 80.867 68.1636 80.5615C68.3745 80.2559 68.5383 79.8958 68.6457 79.5016C68.753 79.1073 68.8018 78.6868 68.7893 78.2639C68.7767 77.841 68.7031 77.4241 68.5725 77.0369C68.442 76.6498 68.2571 76.3 68.0284 76.0075C67.7997 75.715 67.5317 75.4855 67.2397 75.3322C66.9477 75.1789 66.6375 75.1048 66.3266 75.114C66.0158 75.1232 65.7104 75.2156 65.4281 75.386C65.1457 75.5563 64.8918 75.8013 64.6808 76.1068C64.4699 76.4124 64.3061 76.7725 64.1987 77.1667C64.0914 77.561 64.0426 77.9815 64.0551 78.4044C64.0677 78.8273 64.1413 79.2442 64.2719 79.6314C64.4024 80.0185 64.5873 80.3683 64.816 80.6608C65.0447 80.9533 65.3126 81.1828 65.6046 81.3361C65.8966 81.4894 66.2069 81.5635 66.5178 81.5543Z" fill="white"/>
<path d="M45.7567 86.5261C46.399 86.5261 46.9197 86.0054 46.9197 85.3632C46.9197 84.7209 46.399 84.2002 45.7567 84.2002C45.1144 84.2002 44.5938 84.7209 44.5938 85.3632C44.5938 86.0054 45.1144 86.5261 45.7567 86.5261Z" fill="white"/>
<path d="M45.7707 89.4291C46.4155 89.4291 46.9383 88.9063 46.9383 88.2614C46.9383 87.6166 46.4155 87.0938 45.7707 87.0938C45.1258 87.0938 44.603 87.6166 44.603 88.2614C44.603 88.9063 45.1258 89.4291 45.7707 89.4291Z" fill="white"/>
</svg>
